<?xml version="1.0" standalone="no"?>
<!DOCTYPE svg PUBLIC "-//W3C//DTD SVG 20010904//EN"
 "http://www.w3.org/TR/2001/REC-SVG-20010904/DTD/svg10.dtd">
<svg version="1.0" xmlns="http://www.w3.org/2000/svg"
 width="690.000000pt" height="347.000000pt" viewBox="0 0 690.000000 347.000000"
 preserveAspectRatio="xMidYMid meet">
<metadata>
Created by potrace 1.16, written by Peter Selinger 2001-2019
</metadata>
<g transform="translate(0.000000,347.000000) scale(0.100000,-0.100000)"
fill="#000000" stroke="none">
<path d="M3108 3443 c-6 -7 -17 -13 -25 -13 -28 0 -71 -40 -87 -80 -14 -36
-15 -44 -1 -76 19 -46 19 -98 0 -117 -8 -9 -38 -23 -67 -32 -83 -27 -189 -110
-269 -211 -40 -49 -102 -123 -140 -165 -96 -108 -106 -143 -69 -241 11 -28 17
-54 15 -56 -8 -8 -215 27 -386 65 -123 27 -191 36 -274 38 -69 2 -111 7 -113
14 -2 6 6 11 17 11 22 0 28 14 11 25 -6 3 -5 15 2 30 6 14 8 28 5 32 -15 14
-91 -21 -159 -75 -129 -101 -150 -115 -303 -209 -99 -61 -153 -89 -160 -82
-15 15 -46 230 -61 421 -4 52 -1 73 10 90 24 35 20 110 -9 168 -14 28 -29 50
-34 50 -5 0 -11 10 -14 22 -4 12 -9 19 -13 16 -3 -4 -13 0 -21 8 -8 8 -18 12
-23 9 -4 -3 -11 2 -14 11 -4 9 -9 14 -12 11 -4 -3 -12 0 -20 7 -7 8 -40 17
-72 21 -52 6 -66 3 -109 -19 -32 -16 -58 -38 -72 -61 -11 -19 -27 -38 -36 -41
-8 -4 -15 -15 -15 -26 0 -10 -4 -16 -10 -13 -10 6 -11 5 -15 -32 -3 -32 -21
-50 -58 -57 -24 -5 -28 -9 -18 -16 12 -7 9 -11 -15 -22 -16 -7 -34 -17 -41
-23 -6 -5 -39 -26 -73 -45 -88 -49 -147 -114 -211 -232 -74 -134 -109 -219
-116 -278 -5 -46 -3 -52 50 -127 30 -43 74 -96 96 -118 23 -21 41 -42 41 -45
0 -3 -20 -16 -44 -29 -86 -45 -97 -133 -30 -232 22 -33 33 -61 32 -78 -2 -21
2 -27 20 -29 13 -2 43 -23 65 -47 31 -31 53 -44 83 -49 40 -7 41 -8 62 -75 26
-80 27 -124 7 -257 -33 -220 -37 -300 -19 -367 32 -119 32 -125 -15 -169 -47
-43 -48 -62 -4 -109 24 -26 24 -27 7 -62 -9 -19 -14 -43 -11 -52 10 -25 70
-45 137 -45 59 0 100 -12 100 -29 0 -4 -46 -13 -102 -20 -285 -34 -498 -84
-498 -116 0 -103 1146 -187 2772 -204 1839 -18 3473 44 3931 150 48 12 92 26
97 32 65 80 80 102 80 122 0 44 -90 63 -342 72 -129 4 -178 9 -178 18 0 7 -9
32 -20 57 -19 44 -21 130 -5 199 4 14 0 64 -8 110 -9 46 -19 109 -22 139 -8
62 -15 78 -61 138 -48 64 -59 140 -44 322 14 172 14 162 8 273 -2 48 -2 87 1
87 3 0 37 -20 75 -45 38 -25 71 -44 73 -41 3 3 0 59 -6 124 -6 66 -11 132 -11
145 0 28 28 48 209 152 58 33 106 65 108 71 2 6 -28 14 -79 20 l-83 9 2 185
c1 209 -3 227 -65 259 -38 19 -103 101 -81 101 8 0 7 6 -2 17 -10 11 -11 17
-3 20 8 3 6 19 -7 53 -20 53 -19 56 12 40 24 -13 25 -3 4 47 -18 42 -18 46 -5
38 17 -11 11 16 -12 53 -19 30 -19 35 -5 29 15 -6 16 -4 6 16 -6 12 -23 35
-38 51 -22 25 -23 28 -6 22 13 -4 7 6 -17 29 -28 26 -33 35 -20 35 14 1 14 3
-4 13 -12 7 -19 17 -17 24 3 8 -14 17 -44 25 -26 7 -40 14 -30 16 36 7 16 23
-20 16 -35 -7 -37 -6 -24 10 13 16 12 17 -15 10 -16 -3 -33 -11 -38 -15 -15
-14 -26 -11 -26 8 0 15 -2 14 -14 -3 -14 -18 -15 -18 -21 -2 -9 23 -25 13 -25
-14 0 -17 -2 -18 -15 -8 -10 9 -15 9 -15 1 0 -6 -10 -11 -21 -11 -18 0 -20 -2
-8 -16 11 -13 9 -14 -14 -9 -21 6 -27 4 -27 -9 0 -11 -9 -16 -31 -16 -19 0
-28 -4 -24 -11 4 -6 -3 -21 -16 -35 -19 -20 -20 -24 -6 -24 23 0 21 -7 -8 -42
-28 -33 -32 -50 -10 -42 21 8 19 -14 -4 -60 -15 -29 -16 -36 -5 -32 17 7 17 7
-1 -39 -16 -36 -16 -37 6 -30 19 6 21 4 14 -11 -15 -38 -17 -54 -6 -54 8 0 9
-5 2 -18 -9 -16 -6 -18 22 -15 l32 4 -30 -26 c-16 -14 -41 -28 -55 -32 -87
-21 -115 -70 -136 -232 -14 -111 -38 -191 -56 -191 -6 0 -145 50 -309 111
-235 88 -296 115 -291 127 4 12 0 14 -22 8 -17 -4 -25 -3 -22 3 10 15 -13 24
-29 11 -12 -10 -15 -9 -15 4 0 10 -8 16 -22 15 -25 0 -116 22 -160 40 -47 18
-79 -10 -58 -49 12 -22 82 -66 123 -76 18 -4 26 -11 23 -20 -7 -19 12 -28 29
-14 12 10 15 9 15 -4 0 -19 11 -21 28 -4 9 9 12 9 12 -2 0 -11 12 -15 43 -15
27 0 64 -11 102 -30 54 -27 64 -37 100 -102 22 -40 47 -79 55 -86 27 -25 297
-108 368 -114 61 -5 71 -3 105 21 21 14 42 26 47 26 16 0 12 -36 -5 -50 -21
-18 -19 -47 5 -53 25 -6 26 -23 1 -36 -20 -11 -72 -92 -81 -126 -10 -35 -48
-46 -136 -42 l-82 5 2 -64 c1 -53 4 -63 16 -58 8 3 31 8 50 12 34 5 34 4 -45
-70 -54 -51 -96 -103 -130 -159 -27 -46 -71 -110 -97 -142 l-48 -59 0 -105 c0
-88 -3 -109 -20 -133 l-20 -27 -268 178 -268 178 -53 98 -54 98 2 105 c1 67 7
116 17 134 16 34 18 66 4 66 -23 0 -8 304 22 434 10 47 10 60 0 64 -16 5 -16
58 1 72 6 6 27 20 45 31 27 16 31 23 22 34 -6 7 -25 17 -41 20 l-30 7 6 111
c7 130 24 290 34 305 3 5 54 28 113 51 237 93 327 202 201 245 -132 45 -437
-11 -677 -124 -105 -50 -167 -125 -139 -169 26 -42 175 -53 342 -26 52 9 96
13 98 11 7 -7 6 -175 -2 -295 l-8 -103 -91 7 c-50 4 -94 12 -98 18 -4 7 -8 26
-8 43 0 17 -3 33 -6 37 -11 11 -34 -21 -28 -37 3 -9 -1 -27 -10 -41 -15 -23
-22 -25 -93 -25 -66 0 -80 3 -101 23 -13 12 -45 27 -70 32 -47 11 -47 11 -22
25 14 7 56 19 94 24 67 11 70 12 100 58 17 25 39 48 49 51 14 4 17 11 12 26
-5 16 4 27 44 57 66 47 56 63 -12 20 -29 -18 -63 -34 -77 -34 -14 0 -50 -5
-81 -11 -92 -19 -170 12 -354 141 -181 127 -167 119 -288 153 l-98 28 6 52
c10 74 -10 162 -44 193 -56 52 -165 78 -193 45z m512 -707 c25 -21 145 -65
215 -78 36 -7 65 -16 65 -19 0 -8 -121 -59 -199 -83 -74 -24 -148 -74 -163
-110 -7 -17 -12 -48 -13 -70 0 -47 -16 -55 -46 -25 -19 19 -21 29 -16 83 3 33
13 80 21 104 8 23 20 82 27 130 15 121 12 115 56 97 20 -9 44 -22 53 -29z
m-865 -191 c-4 -42 -17 -120 -29 -173 -20 -91 -21 -119 -5 -207 4 -18 -3 -19
-161 -20 -234 -2 -276 -20 -286 -122 -5 -47 -3 -61 10 -72 17 -14 23 -101 7
-101 -5 0 -12 -43 -16 -95 -6 -77 -10 -98 -26 -109 -18 -12 -18 -16 -5 -47 11
-27 13 -50 6 -104 -5 -39 -9 -126 -10 -194 l0 -123 -32 6 c-17 3 -33 7 -34 9
-5 5 -23 209 -30 335 -5 89 -4 122 5 122 19 0 12 37 -10 52 -19 12 -23 30 -35
183 -8 94 -12 190 -8 213 4 32 2 47 -9 55 -11 9 -13 24 -8 58 l6 46 100 -24
c283 -68 414 -69 423 -4 3 17 -9 34 -43 66 -47 45 -209 135 -241 135 -9 0 -15
3 -11 6 12 12 158 -19 170 -37 7 -9 32 -25 56 -35 42 -16 46 -16 97 1 39 13
51 21 44 30 -6 7 -6 23 -1 43 6 21 6 42 -2 61 -9 24 -8 33 5 48 8 10 18 30 22
46 5 21 12 27 32 27 l26 0 -7 -75z m-1076 -70 c27 -46 118 -104 237 -151 71
-28 93 -41 89 -53 -3 -8 0 -18 7 -22 9 -6 13 -35 14 -86 1 -43 9 -136 19 -208
10 -79 15 -161 12 -210 -3 -44 -2 -98 3 -120 17 -74 40 -450 28 -454 -58 -20
-362 -193 -514 -292 -168 -110 -200 -149 -121 -149 27 0 36 6 51 34 14 26 52
55 158 120 77 47 147 86 155 86 23 0 225 -69 249 -85 37 -24 114 -29 174 -11
29 9 61 16 71 16 19 0 178 -246 182 -282 2 -20 -5 -22 -148 -39 -82 -9 -285
-40 -450 -67 -330 -55 -367 -60 -730 -97 -137 -14 -267 -27 -289 -30 -29 -4
-41 -1 -51 12 -12 16 -9 21 18 44 l32 26 -20 37 c-18 34 -23 37 -60 35 -75 -3
-79 -2 -93 42 -12 38 -11 44 8 63 11 12 20 35 20 52 0 16 9 43 21 59 11 17 35
60 54 96 47 91 138 224 195 284 78 81 85 102 70 209 -7 50 -34 161 -60 246
-26 85 -53 181 -59 212 -7 31 -21 68 -32 81 -12 16 -19 41 -19 66 0 28 -7 48
-20 61 -11 11 -20 22 -20 24 0 2 17 14 38 27 20 12 54 33 75 47 36 24 40 24
107 13 38 -6 98 -11 133 -11 l64 0 41 49 c42 49 56 101 32 116 -5 3 -10 22
-10 41 0 30 6 38 48 64 34 21 60 30 92 30 75 0 122 11 116 26 -4 9 2 14 16 14
17 0 18 2 8 15 -13 15 -8 19 23 16 20 -3 22 10 5 27 -8 8 -8 12 -1 12 6 0 20
-16 32 -35z m2529 -21 c21 -6 22 -11 22 -110 0 -63 -4 -104 -10 -104 -5 0 -10
5 -10 10 0 6 -14 19 -32 30 -23 14 -37 34 -52 77 -33 90 -7 120 82 97z m262
-30 c0 -27 -5 -37 -20 -41 -21 -6 -28 -43 -8 -43 8 0 9 -49 5 -192 -8 -218
-14 -268 -33 -268 -21 0 -25 -16 -9 -46 16 -31 20 -119 6 -128 -4 -3 -20 16
-34 42 -14 26 -49 69 -76 95 -48 45 -51 52 -50 95 0 58 13 127 30 170 11 27
11 36 0 54 -10 16 -11 48 -6 139 4 66 11 119 16 119 5 0 9 6 9 14 0 16 28 22
113 25 l57 1 0 -36z m-3547 -144 c8 -19 18 -48 21 -65 5 -26 2 -32 -21 -46
-16 -9 -44 -26 -64 -38 l-37 -22 3 78 c2 86 27 194 53 233 17 25 17 25 23 -40
4 -36 13 -81 22 -100z m3255 -424 c-18 -19 -42 -46 -53 -61 -18 -24 -23 -26
-47 -15 -15 7 -29 19 -32 26 -3 7 -2 54 1 104 l6 91 39 20 c21 11 38 24 38 29
0 5 17 18 38 29 l37 19 3 -104 3 -105 -33 -33z m-843 168 c17 -4 46 -15 65
-24 19 -10 70 -23 114 -29 43 -6 99 -20 125 -32 l46 -20 -25 -14 c-15 -9 -55
-14 -101 -15 -69 0 -155 -11 -201 -26 -11 -3 -18 0 -18 8 0 8 -16 46 -35 87
-41 84 -41 84 -17 77 9 -3 31 -8 47 -12z m1018 -289 c37 -64 63 -133 53 -142
-3 -4 -15 2 -27 13 -11 10 -42 30 -67 44 -33 18 -46 31 -45 45 1 11 -3 43 -8
72 -6 29 -7 58 -4 63 11 17 61 -31 98 -95z m1535 -248 c39 -57 82 -179 82
-231 0 -79 19 -148 55 -201 29 -41 35 -59 35 -101 0 -37 11 -75 40 -143 22
-51 45 -123 51 -159 24 -154 24 -147 -9 -197 -17 -26 -32 -51 -34 -56 -3 -9
-188 -15 -880 -32 -71 -1 -128 0 -128 4 0 4 16 21 35 38 30 26 38 29 54 19 15
-9 32 -9 75 1 31 7 58 17 62 23 3 5 -6 38 -21 73 -24 58 -25 65 -12 92 44 84
87 360 78 488 -8 114 -8 114 82 181 98 73 340 232 371 244 27 10 30 8 64 -43z
m-5121 -192 c5 -38 0 -53 -38 -122 -23 -43 -58 -100 -76 -127 l-33 -48 0 42
c0 26 8 53 20 69 21 30 50 153 50 212 0 20 3 57 6 83 l7 47 29 -56 c16 -31 31
-76 35 -100z m1568 6 c61 -23 214 -47 356 -56 l107 -7 6 -191 c9 -257 9 -267
1 -304 -7 -33 -7 -33 30 -33 36 0 37 1 31 28 -29 131 -37 217 -33 351 5 155 7
161 63 161 20 0 39 -9 53 -24 23 -25 24 -35 5 -97 -3 -12 9 -22 45 -38 29 -12
64 -38 83 -61 18 -22 64 -57 102 -78 l68 -37 -5 -98 c-5 -101 -11 -122 -27
-97 -13 22 -23 5 -23 -40 0 -41 12 -66 20 -42 3 6 9 12 13 12 11 0 2 -122 -12
-167 -5 -18 -11 -33 -13 -33 -1 0 -79 24 -171 54 -203 65 -299 86 -396 86 -66
1 -75 3 -99 28 -15 15 -36 47 -49 71 -12 24 -62 106 -111 183 -49 76 -89 146
-89 154 0 12 25 70 35 82 1 1 30 -5 64 -14 50 -14 65 -24 77 -46 16 -32 40
-34 58 -6 18 29 -18 52 -141 93 l-113 37 0 74 c0 41 3 74 8 74 4 0 30 -9 57
-19z m2547 -166 c88 -59 133 -95 144 -117 20 -39 31 -48 62 -48 l24 0 -5 -186
c-4 -182 -7 -203 -38 -204 -3 0 -16 -19 -29 -42 -44 -79 -69 -106 -121 -124
-30 -11 -51 -26 -55 -37 -6 -19 -14 -20 -258 -14 -138 4 -384 15 -546 27 -162
11 -374 22 -470 25 -96 3 -207 8 -245 11 l-71 5 -2 55 c-1 30 4 125 13 212 8
86 15 163 15 170 0 19 24 14 64 -13 20 -14 44 -25 52 -25 9 0 51 -32 94 -72
88 -81 290 -194 320 -178 8 4 40 11 70 14 91 11 152 27 220 58 36 16 74 31 85
34 11 2 22 9 24 16 5 14 35 44 72 73 34 27 90 101 139 186 23 38 47 69 55 69
8 0 15 -4 15 -9 0 -6 17 -29 38 -53 20 -24 45 -63 55 -86 9 -23 24 -60 34 -82
12 -31 22 -40 40 -40 31 0 32 42 0 67 -28 22 -97 137 -97 162 0 10 7 24 15 31
24 20 17 32 -13 25 -35 -7 -58 15 -67 68 -4 20 -6 37 -4 37 3 0 49 16 104 35
55 19 109 35 120 35 11 0 77 -38 147 -85z m-2772 -92 c0 -38 3 -78 6 -90 11
-40 -33 -39 -146 2 -55 21 -99 42 -98 47 6 16 183 107 211 108 27 0 27 0 27
-67z"/>
</g>
</svg>
